<svg xmlns="http://www.w3.org/2000/svg" xmlns:xlink="http://www.w3.org/1999/xlink" version="1.1" style="" xml:space="preserve" width="32" height="32"><rect id="backgroundrect" width="100%" height="100%" x="0" y="0" fill="none" stroke="none"/>
















<g class="currentLayer" style=""><title>Layer 1</title><g id="svg_1" class="selected" fill="#233685" fill-opacity="1">
	<g id="svg_2" fill="#233685" fill-opacity="1">
		<path style="" d="M5.72878619401527,22.388100314006213 c3.528245353341066,0.06868841453795761 6.5857521366830545,0.5962903945026076 8.842066397112402,1.525813294905729 c0.03851203674941009,0.015766672763181225 0.07928568639517801,0.023650009144771937 0.11967163097299884,0.023650009144771937 c0.06138663575828769,0 0.12245018395995262,-0.01802828565953924 0.1748549856441329,-0.05311559430875016 c0.08716902277676858,-0.058284995214711 0.13944458943829993,-0.1562451423826735 0.13944458943829993,-0.2611193632623584 l0.0012277327151657546,-16.866268953390446 c0,-0.1287180825584308 -0.07851027625928395,-0.24444804534063394 -0.19811728972095777,-0.2920065336754758 L5.8510425254412555,2.900880483782203 c-0.09666779694147211,-0.03851203674941009 -0.20632371365917068,-0.026557797154375094 -0.29252347376607185,0.031921050594309636 c-0.08619976010690107,0.05854346526000911 -0.13782915165518678,0.15592205482605073 -0.13782915165518678,0.2600854830811658 v18.881042956488763 C5.420689900020004,22.24510176144507 5.55767902402797,22.384740203417362 5.72878619401527,22.388100314006213 z" id="svg_3" fill="#233685" fill-opacity="1"/>
		<path style="" d="M31.389498438671968,5.896354456252668 c-0.07954415644047608,-0.05925425788457883 -0.18247985198042563,-0.07741177856676702 -0.2776614461614332,-0.04904469109530568 l-3.167873492684256,0.947098863483392 c-0.13311207332849725,0.03980438697590021 -0.22428738180738617,0.16218995342452824 -0.22428738180738617,0.3010529852609082 v16.29337009798731 c0,0 0.014086617468743944,0.2570484600489138 -0.2565315199583172,0.2570484600489138 c-0.3099055843123658,0 -0.5134507449845814,0 -0.5134507449845814,0 c-2.55555795537317,0 -7.304686567679587,0.2652548839871268 -10.398896097453896,2.0419133578546145 l-0.6141248276281761,0.3516484966280013 l-0.6140602101168486,-0.3516484966280013 c-3.0942741472856365,-1.7765938563561638 -7.843338142080729,-2.0419133578546145 -10.398896097453896,-2.0419133578546145 c0,0 -0.5233372242172306,0 -0.6553507998532129,0 c-0.12219171391465475,0 -0.11469608260101136,-0.1468109857292945 -0.11469608260101136,-0.14674636821796996 V7.095461613901643 c0,-0.13886303183637924 -0.09117530847888859,-0.2612485982850068 -0.22422276429606094,-0.3010529852609082 L0.7615734809886323,5.847309765157352 c-0.09518159418100823,-0.02836708747146136 -0.19811728972095777,-0.010209566789273136 -0.2777260636727586,0.04904469109530568 S0.35732633014247955,6.049045635512483 0.35732633014247955,6.148298132906936 v19.712799562257892 c0,0.08865522553723257 0.03754277407954229,0.17323954786101994 0.10319416558524773,0.23288151081354524 c0.0657160090170301,0.05951272792987689 0.15346658939571894,0.08865522553723257 0.24173410986500424,0.0798672439970985 c0.9415417575094847,-0.09233842368272957 2.413528665481889,-0.20231742795705104 4.078915784848568,-0.20231742795705104 c3.6577388460353912,0 6.597254053698818,0.5341283486084266 8.50211367003414,1.5451985483030843 c0.2798584415464674,0.1468109857292945 1.9024041509049905,1.0211505314612812 2.6535181025411316,1.0211505314612812 c0.7511139516361416,0 2.3735950434833413,-0.8742749282206643 2.6533888675184842,-1.0211505314612812 c1.904924233846648,-1.011070199694657 4.844439441510074,-1.5451985483030843 8.502178287545465,-1.5451985483030843 c1.665257884344029,0 3.137374027339087,0.10997900427432154 4.078851167337243,0.20231742795705104 c0.08833213798061,0.0087879815401338 0.17608271835929834,-0.020354516067221787 0.2417987273763288,-0.0798672439970985 c0.0656513915057055,-0.05964196295252571 0.10312954807392335,-0.14416166776498907 0.10312954807392335,-0.23288151081354524 V6.148298132906936 C31.516084143356682,6.049045635512483 31.469107212623776,5.955608714137247 31.389498438671968,5.896354456252668 z" id="svg_4" fill="#233685" fill-opacity="1"/>
		<path style="" d="M17.0079020307317,23.884448023747975 c0.05246941919550488,0.035087308649210815 0.11353296739716967,0.05311559430875016 0.1748549856441329,0.05311559430875016 c0.04045056208914555,0 0.0811595942235887,-0.007883336381590634 0.1197362484843234,-0.023650009144771937 c2.2562496429180245,-0.9295875179144473 5.313821043771337,-1.457189497879096 8.842066397112402,-1.525813294905729 c0.1711071699873112,-0.003360110588874702 0.30816091150660435,-0.14299855256114832 0.30816091150660435,-0.3141057225484588 V3.192887017457679 c0,-0.10422804576644017 -0.05162939154828639,-0.2016066353324814 -0.13782915165518678,-0.2600854830811658 c-0.08619976010690107,-0.05841423023736013 -0.19585567682459976,-0.07043308734371959 -0.2925880912773966,-0.031921050594309636 L17.06541161581051,6.465053173419699 c-0.11960701346167421,0.04755848833484188 -0.19805267220963313,0.16328845111704557 -0.19805267220963313,0.2920065336754758 l0.0012277327151657546,16.866268953390446 C16.868457441293398,23.728202881365306 16.920797625466257,23.82616302853328 17.0079020307317,23.884448023747975 z" id="svg_5" fill="#233685" fill-opacity="1"/>
	</g>
</g><g id="svg_6">
</g><g id="svg_7">
</g><g id="svg_8">
</g><g id="svg_9">
</g><g id="svg_10">
</g><g id="svg_11">
</g><g id="svg_12">
</g><g id="svg_13">
</g><g id="svg_14">
</g><g id="svg_15">
</g><g id="svg_16">
</g><g id="svg_17">
</g><g id="svg_18">
</g><g id="svg_19">
</g><g id="svg_20">
</g></g></svg>